<svg width="30" height="30" viewBox="0 0 30 30" fill="none" xmlns="http://www.w3.org/2000/svg">
<rect width="30" height="30" rx="15" fill="#EEF5FF"/>
<path d="M16.9585 6.66667H13.0418C12.1751 6.66667 11.4668 7.36667 11.4668 8.23334V9.01667C11.4668 9.88334 12.1668 10.5833 13.0335 10.5833H16.9585C17.8251 10.5833 18.5251 9.88334 18.5251 9.01667V8.23334C18.5335 7.36667 17.8251 6.66667 16.9585 6.66667Z" fill="#2E7DF1"/>
<path d="M19.3662 9.01667C19.3662 10.3417 18.2829 11.425 16.9579 11.425H13.0412C11.7162 11.425 10.6329 10.3417 10.6329 9.01667C10.6329 8.55 10.1329 8.25833 9.71621 8.475C8.54121 9.1 7.74121 10.3417 7.74121 11.7667V19.6083C7.74121 21.6583 9.41621 23.3333 11.4662 23.3333H18.5329C20.5829 23.3333 22.2579 21.6583 22.2579 19.6083V11.7667C22.2579 10.3417 21.4579 9.1 20.2829 8.475C19.8662 8.25833 19.3662 8.55 19.3662 9.01667ZM17.7829 15.6083L14.4495 18.9417C14.3245 19.0667 14.1662 19.125 14.0079 19.125C13.8495 19.125 13.6912 19.0667 13.5662 18.9417L12.3162 17.6917C12.0745 17.45 12.0745 17.05 12.3162 16.8083C12.5579 16.5667 12.9579 16.5667 13.1995 16.8083L14.0079 17.6167L16.8995 14.725C17.1412 14.4833 17.5412 14.4833 17.7829 14.725C18.0245 14.9667 18.0245 15.3667 17.7829 15.6083Z" fill="#2E7DF1"/>
</svg>
