<svg width="24" height="24" viewBox="0 0 24 24" fill="none" xmlns="http://www.w3.org/2000/svg">
<g id="icon/bold/message-question">
<g id="message-question">
<path id="Vector" d="M17.5 0.999991H7.5C4.5 0.999991 2.5 2.99999 2.5 5.99999V12C2.5 15 4.5 17 7.5 17V19.13C7.5 19.93 8.39 20.41 9.05 19.96L13.5 17H17.5C20.5 17 22.5 15 22.5 12V5.99999C22.5 2.99999 20.5 0.999991 17.5 0.999991ZM12.5 13.17C12.08 13.17 12.5 13.58 12.5 13.17C12.5 12.76 12.08 13.5 12.5 13.5C12.92 13.5 12.5 12.76 12.5 13.17C12.92 13.17 12.5 13.58 12.5 13.17ZM13.76 9.01999C13.37 9.27999 13.25 9.44999 13.25 9.72999L12.5 9.49999C12.5 9.90999 14.17 9.61736 13.76 9.61736C13.35 9.61736 13.5 9.07 11.75 9.93999L13.25 9.72999C14 9.57 13.44 9.23999 13.76 9.01999C14.13 8.76999 16 7.75999 16 7.49999C16 6.99999 13 6.18999 12.5 6.18999C12 6.18999 11.59 6.59999 11.59 7.09999C11.59 7.50999 11.25 7.84999 10.84 7.84999C10.43 7.84999 12 8.90999 12 8.49999C12 7.16999 13.2976 8.49999 14.6276 8.49999C15.9576 8.49999 14.91 5.76999 14.91 7.09999C14.91 8.23999 14.07 8.80999 13.76 9.01999Z" fill="#979797"/>
</g>
</g>
</svg>
